<svg width="22" height="20" viewBox="0 0 22 20" fill="none" xmlns="http://www.w3.org/2000/svg"><path fill-rule="evenodd" clip-rule="evenodd" d="M22 0H0v20h22V0ZM0 9.659c0 .981.834 1.914 2.424 2.704a.427.427 0 0 0 .585-.159.387.387 0 0 0-.067-.456.416.416 0 0 0-.138-.093C1.494 11.006.789 10.274.83 9.607c.045-.938 1.601-1.901 4.301-2.414.244.863.56 1.764.95 2.683-.92 1.639-1.588 3.252-1.932 4.687-.506 2.14-.235 3.663.777 4.295.325.203.705.304 1.127.304.845 0 1.868-.4 3.024-1.19a.402.402 0 0 0 .182-.26.382.382 0 0 0-.069-.305.408.408 0 0 0-.277-.163.426.426 0 0 0-.315.08c-1.395.957-2.57 1.277-3.218.87-.687-.43-.837-1.686-.416-3.451.29-1.203.82-2.544 1.543-3.924.181.38.371.76.57 1.14 1.287 2.427 2.864 4.537 4.436 5.942 1.253 1.12 2.417 1.704 3.376 1.704.316 0 .614-.065.881-.194 1.035-.508 1.482-1.918 1.264-3.971-.203-1.921-.958-4.262-2.127-6.597a.412.412 0 0 0-.237-.197.432.432 0 0 0-.312.018.407.407 0 0 0-.211.222.385.385 0 0 0 .01.3c2.43 4.863 2.602 8.846 1.238 9.514-1.437.706-4.902-2.044-7.582-7.1a21.766 21.766 0 0 1-.813-1.676c.307-.528.632-1.059.99-1.588.356-.524.728-1.032 1.105-1.515h.356c.488 0 1.018.009 1.567.042 5.9.297 9.917 2.222 9.835 3.762-.036.664-.835 1.335-2.191 1.84a.412.412 0 0 0-.228.213.388.388 0 0 0 .08.436.408.408 0 0 0 .29.123.432.432 0 0 0 .159-.027c1.721-.642 2.666-1.524 2.72-2.543.063-1.155-1.057-2.266-3.163-3.126v-.008l-.007-.005C16.54 6.72 13.89 6.2 11.059 6.057a22.915 22.915 0 0 0-1.31-.035c2.094-2.456 4.339-4.106 5.816-4.157.291-.012.538.047.735.17.638.397.818 1.534.492 3.116a.41.41 0 0 0 .326.469.413.413 0 0 0 .488-.313c.406-1.979.108-3.338-.85-3.94-.343-.214-.759-.316-1.22-.3-1.852.068-4.463 1.997-6.858 4.966-1.043.03-2.024.113-2.92.249-.584-2.515-.353-4.32.536-4.754.125-.064.258-.096.413-.108.63-.047 1.5.343 2.45 1.102.174.14.438.122.583-.052a.395.395 0 0 0 .093-.29.386.386 0 0 0-.147-.27C8.547 1.005 7.497.563 6.639.623c-.253.02-.499.085-.726.191-1.075.527-1.509 2.02-1.238 4.2.063.451.145.922.262 1.406C1.972 6.99.084 8.13.002 9.566A1.735 1.735 0 0 0 0 9.659Zm6.604-.682c.22-.362.447-.72.693-1.08.24-.362.488-.712.741-1.05-.745.043-1.443.112-2.087.208.185.65.403 1.292.653 1.922Zm3.359.29c.233-.224.549-.35.878-.35.33 0 .646.126.879.35.233.224.364.527.364.844 0 .316-.131.62-.364.844-.233.224-.55.35-.879.35-.33 0-.645-.126-.878-.35a1.17 1.17 0 0 1-.364-.844c0-.317.13-.62.364-.844Z" fill="#1D1D1D"/></svg>