<svg width="21" height="21" viewBox="0 0 21 21" fill="none" xmlns="http://www.w3.org/2000/svg"><path fill-rule="evenodd" clip-rule="evenodd" d="M21 0H0v21h21V0ZM10.78.677a.36.36 0 0 0-.315 0L1.842 4.893a.36.36 0 0 0-.201.323v10.54a.36.36 0 0 0 .201.323l8.623 4.217a.36.36 0 0 0 .316 0l8.622-4.216a.36.36 0 0 0 .202-.323V5.217a.36.36 0 0 0-.202-.324L10.781.677ZM2.36 15.533V5.792l7.904 3.865v9.74l-7.905-3.864Zm8.622 3.113v-8.99l7.354-3.595-7.354 12.585Zm.55.482 7.354-12.585v8.99l-7.353 3.595ZM10.623 1.4l7.07 3.457H3.553l7.07-3.457Zm0 7.633 7.07-3.457H3.553l7.07 3.457Z" fill="#1D1D1D"/></svg>