<svg width="19" height="19" viewBox="0 0 19 19" fill="none" xmlns="http://www.w3.org/2000/svg"><path fill-rule="evenodd" clip-rule="evenodd" d="M19 0H0v19h19V0ZM.394 14.845a.532.532 0 0 0-.027.053c-.195.265-.299.55-.299.852 0 1.897 4.1 3.125 9.205 3.125 5.103 0 9.204-1.228 9.204-3.125a1.33 1.33 0 0 0-.127-.564.526.526 0 0 0-.07-.224L9.71.378a.507.507 0 0 0-.878.002L.394 14.845Zm8.879-2.22c-2.803 0-5.304.37-6.989 1.019l6.99-11.981L16.33 13.67c-1.686-.664-4.216-1.045-7.056-1.045ZM1.09 15.75c0-.08.024-.159.07-.24a.516.516 0 0 0 .112-.133l.023-.039c.832-.853 4.102-1.671 7.977-1.671 4.498 0 8.181 1.103 8.181 2.083 0 .98-3.683 2.083-8.181 2.083-4.499 0-8.182-1.103-8.182-2.083Z" fill="#1D1D1D"/></svg>