<svg width="85" height="25" viewBox="0 0 85 25" fill="none" xmlns="http://www.w3.org/2000/svg"><path d="M16.41 7.738h2.462l4.102 15.476h-2.461L16.41 7.738ZM11.487 7.738h2.667l4.444 15.476h-2.667L11.487 7.738ZM6.33 1.823 0 25l4.923-1.563L11.487 0 6.33 1.823ZM35.452 15.494 33.06 8.982l-2.392 6.512h4.784Zm2.557 4.19h-1.005l-1.17-3.17h-5.548l-1.17 3.17h-1.005L33.06 6.25l4.948 13.433ZM44.16 7.535V14.6h3.216c.89 0 1.65-.343 2.28-1.029.623-.698.935-1.532.935-2.504 0-.97-.312-1.802-.936-2.494-.63-.692-1.39-1.038-2.28-1.038H44.16Zm4.88 7.74c.86.622 1.485 1.32 1.872 2.095.393.787.59 1.558.59 2.313h-.937c0-1.021-.378-1.954-1.135-2.799-.769-.837-1.69-1.256-2.765-1.256H44.16v4.055h-.936V6.507h4.152c1.15 0 2.129.448 2.938 1.342.815.889 1.222 1.962 1.222 3.218 0 .85-.202 1.641-.607 2.371-.393.698-1.023 1.31-1.89 1.837ZM57.297 19.683V6.507h.936v13.176h-.936ZM71.257 18.655v1.028h-6.978V6.507h6.978v1.028h-6.042v5.008h4.871v1.028h-4.87v5.084h6.04ZM80.978 19.94a4.823 4.823 0 0 1-2.67-.77c-.959-.61-1.571-1.41-1.837-2.4l.884-.285c.202.761.688 1.38 1.456 1.856.63.393 1.355.59 2.176.59.127 0 .237-.003.33-.01.092-.006.202-.021.329-.047.358-.063.684-.168.98-.314.889-.444 1.371-1.206 1.447-2.285a2.175 2.175 0 0 0-.468-1.542c-.526-.673-1.356-1.05-2.488-1.133-1.757-.127-3.02-.571-3.788-1.333-.566-.552-.85-1.266-.85-2.142 0-1.2.431-2.158 1.292-2.875.792-.667 1.751-1 2.878-1 1.329 0 2.441.517 3.337 1.552.283.336.529.704.737 1.104.069.127.121.238.156.333l-.858.353-.2-.381c-.11-.216-.28-.45-.511-.705-.717-.831-1.604-1.247-2.661-1.247-.318 0-.642.045-.97.133a3.357 3.357 0 0 0-1.05.429c-.82.527-1.23 1.295-1.23 2.304 0 1.46 1.26 2.282 3.779 2.466 1.386.101 2.427.593 3.12 1.475.52.66.751 1.422.693 2.285-.086 1.162-.54 2.07-1.36 2.723-.729.578-1.607.866-2.635.866h-.018Z" fill="#fff"/></svg>