<svg width="21" height="20" viewBox="0 0 21 20" fill="none" xmlns="http://www.w3.org/2000/svg"><path fill-rule="evenodd" clip-rule="evenodd" d="M21 0H0v20h21V0ZM10.916.648a.341.341 0 0 0-.306 0l-1.975.992a.34.34 0 0 0 .153.645h3.95a.341.341 0 0 0 .153-.645L10.916.648Zm.384.956h-1.074l.537-.27.537.27Zm-6.308 2.63a.34.34 0 0 0-.306-.61l-1.969.989a.34.34 0 0 0-.003.001l-.155.154a.353.353 0 0 0-.036.153V7.4a.34.34 0 1 0 .682 0V5.473l1.48.744a.34.34 0 0 0 .307-.609l-1.369-.687 1.369-.688Zm11.85-.61a.34.34 0 1 0-.307.61l1.369.687-1.369.687a.34.34 0 1 0 .306.61l1.481-.745v1.928a.341.341 0 0 0 .682 0V4.92a.34.34 0 0 0-.195-.308l-1.968-.99Zm-7.9 3.968a.34.34 0 1 0-.307.61l1.787.897v2.27a.34.34 0 0 0 .682 0v-2.27l1.787-.898a.341.341 0 0 0-.306-.609l-1.822.915-1.822-.915Zm-5.782 4.6a.341.341 0 0 0-.637.17v2.48c0 .128.072.246.188.304l1.975.992a.34.34 0 0 0 .449-.473L3.16 12.193Zm15.844.17a.34.34 0 1 0-.682 0v2.269l-1.787.898a.34.34 0 1 0 .306.609l1.975-.992a.341.341 0 0 0 .188-.305v-2.48Zm-15.8 2.269v-.981l.782 1.373-.781-.392Zm7.9 1.698a.34.34 0 0 0-.682 0v1.928l-1.48-.744a.341.341 0 0 0-.307.61l1.97.988a.337.337 0 0 0 .317 0l1.97-.989a.341.341 0 0 0-.307-.61l-1.48.745v-1.928Z" fill="#1D1D1D"/></svg>