<svg width="22" height="19" viewBox="0 0 22 19" fill="none" xmlns="http://www.w3.org/2000/svg"><path fill-rule="evenodd" clip-rule="evenodd" d="M22 0H0v19h22V0ZM10.858 6.375c-2.19 0-3.964 1.4-3.964 3.125 0 1.726 1.775 3.125 3.964 3.125 2.19 0 3.964-1.4 3.964-3.125 0-1.726-1.774-3.125-3.964-3.125Zm0 5.208c-1.46 0-2.643-.932-2.643-2.083 0-1.15 1.183-2.083 2.643-2.083 1.46 0 2.643.932 2.643 2.083 0 1.15-1.183 2.083-2.643 2.083ZM4.468 6.24c.27.193.689.177.934-.036.164-.144.337-.28.519-.41 3.013-2.15 7.667-1.966 10.394.41.244.213.662.23.933.036.27-.193.291-.522.046-.735-3.216-2.802-8.705-3.019-12.26-.483a8.037 8.037 0 0 0-.612.483c-.245.213-.224.542.046.735Zm15.407-2.072c.278-.186.312-.515.076-.734C15.686-.525 8.158-1.01 3.136 2.354c-.493.33-.952.69-1.37 1.08-.237.219-.203.548.075.734.278.186.695.16.931-.06.373-.346.78-.667 1.22-.96 4.465-2.99 11.16-2.56 14.952.96.236.22.653.246.931.06Zm-2.629 8.59c-.271-.192-.69-.174-.933.04-2.706 2.375-7.342 2.57-10.354.438a6.798 6.798 0 0 1-.556-.438c-.244-.214-.661-.232-.933-.04-.271.193-.294.522-.05.736.207.181.426.354.656.517 3.555 2.517 9.026 2.286 12.22-.517.244-.214.221-.543-.05-.736Zm2.63 2.074c-.279-.186-.696-.16-.932.06-3.797 3.52-10.495 3.948-14.96.955a9.823 9.823 0 0 1-1.212-.955c-.236-.22-.653-.246-.931-.06-.278.187-.312.515-.076.734.417.387.873.746 1.363 1.074 5.021 3.366 12.553 2.885 16.823-1.074.236-.219.202-.547-.076-.734Z" fill="#1D1D1D"/></svg>