<svg width="25" height="21" viewBox="0 0 25 21" fill="none" xmlns="http://www.w3.org/2000/svg"><path fill-rule="evenodd" clip-rule="evenodd" d="M25 0H0v9.762a.653.653 0 0 1 .16-.419.734.734 0 0 1 .264-.193.8.8 0 0 1 .776.08.675.675 0 0 1 .258.362c.775 2.717 2.515 5.123 4.946 6.84 2.431 1.716 5.416 2.647 8.488 2.646.196 0 .385.071.524.198a.636.636 0 0 1 0 .959.777.777 0 0 1-.524.198c-6.995 0-13.11-4.318-14.868-10.5A.624.624 0 0 1 0 9.763V21h25V0ZM11.81.77a.776.776 0 0 1 .515-.204.81.81 0 0 1 .448.13.676.676 0 0 1 .29.411c.011.045.016.091.016.137v12.883a.65.65 0 0 1-.217.48.778.778 0 0 1-.524.198.778.778 0 0 1-.524-.198.65.65 0 0 1-.217-.48V1.244a.65.65 0 0 1 .212-.475Zm11.449 3.714a.804.804 0 0 1 .696.046.702.702 0 0 1 .283.297c.08.164.084.35.014.518a.708.708 0 0 1-.389.376L19.017 7.7l4.846 1.985a.719.719 0 0 1 .36.312c.077.138.1.296.064.449a.672.672 0 0 1-.258.386.804.804 0 0 1-.77.091l-6.362-2.605a.729.729 0 0 1-.318-.25.637.637 0 0 1-.119-.369c0-.13.041-.259.119-.368a.727.727 0 0 1 .318-.25l6.362-2.597Z" fill="#1D1D1D"/></svg>