<svg width="23" height="21" viewBox="0 0 23 21" fill="none" xmlns="http://www.w3.org/2000/svg"><path fill-rule="evenodd" clip-rule="evenodd" d="M23 0H0v21h23V0ZM5.04 7.514c1.76-.216 3.153-1.409 3.405-2.917h5.21c2.22 0 4.02 1.542 4.02 3.444v.526c-1.948.239-3.446 1.674-3.446 3.409 0 1.901 1.8 3.443 4.02 3.443 2.22 0 4.02-1.542 4.02-3.443 0-1.735-1.497-3.17-3.445-3.409v-.526c0-2.445-2.315-4.428-5.17-4.428H8.446C8.166 1.946 6.491.663 4.465.663c-2.22 0-4.02 1.54-4.02 3.442 0 1.735 1.498 3.17 3.446 3.409v5.972C1.943 13.725.445 15.16.445 16.895c0 1.901 1.8 3.443 4.02 3.443 2.22 0 4.02-1.542 4.02-3.443 0-1.735-1.497-3.17-3.445-3.409V7.514Zm-.574-.95c-1.586 0-2.872-1.1-2.872-2.459 0-1.358 1.286-2.46 2.872-2.46 1.586 0 2.871 1.102 2.871 2.46 0 1.359-1.285 2.46-2.871 2.46Zm0 12.79c-1.586 0-2.872-1.1-2.872-2.46 0-1.358 1.286-2.459 2.872-2.459 1.586 0 2.871 1.101 2.871 2.46 0 1.358-1.285 2.46-2.871 2.46Zm10.912-7.378c0-1.359 1.285-2.46 2.871-2.46s2.872 1.101 2.872 2.46c0 1.358-1.286 2.46-2.872 2.46-1.586 0-2.871-1.102-2.871-2.46Z" fill="#1D1D1D"/></svg>