<svg width="15" height="60" viewBox="0 0 15 60" fill="none" xmlns="http://www.w3.org/2000/svg">
    <path d="M6.73918 59.1851C7.12971 59.5756 7.76287 59.5756 8.1534 59.1851L14.5174 52.8211C14.9079 52.4306 14.9079 51.7974 14.5174 51.4069C14.1268 51.0164 13.4937 51.0164 13.1031 51.4069L7.44629 57.0638L1.78944 51.4069C1.39891 51.0164 0.765748 51.0164 0.375223 51.4069C-0.0153011 51.7974 -0.015301 52.4306 0.375223 52.8211L6.73918 59.1851ZM6.44629 4.43994L6.44629 58.478L8.44629 58.478L8.44629 4.43994L6.44629 4.43994Z"
          fill="url(#paint0_linear_1_370)"/>
    <line x1="7.44629" y1="2.43896" x2="7.44629" y2="0.438965" stroke="#99A9FF" stroke-width="2"/>
    <defs>
        <linearGradient id="paint0_linear_1_370" x1="7.44632" y1="58.478" x2="8.86093" y2="4.477" gradientUnits="userSpaceOnUse">
<stop stop-color="#66FFE5"/>
<stop offset="1" stop-color="#99A9FF"/>
</linearGradient>
</defs>
</svg>
