<svg width="16" height="56" viewBox="0 0 16 56" fill="none" xmlns="http://www.w3.org/2000/svg">
<path fill-rule="evenodd" clip-rule="evenodd" d="M7 0H0V55H7.72607C7.90491 55.0508 8.09509 55.0508 8.27393 55H16V0H9V51.6238L13.6569 46.967C14.0474 46.5764 14.6805 46.5764 15.071 46.967C15.4615 47.3574 15.4615 47.9907 15.071 48.3811L8.70715 54.7451C8.58228 54.8701 8.4325 54.9551 8.27393 55H7.72607C7.5675 54.9551 7.41772 54.8701 7.29285 54.7451L0.928955 48.3811C0.538452 47.9907 0.538452 47.3574 0.928955 46.967C1.31946 46.5764 1.95264 46.5764 2.34314 46.967L7 51.6238V0Z" fill="#1D1D1D"/>
</svg>
