<svg width="22" height="20" viewBox="0 0 22 20" fill="none" xmlns="http://www.w3.org/2000/svg">
<path fill-rule="evenodd" clip-rule="evenodd" d="M22 0H0V9.65869V20H22V0ZM0 9.65869C0 10.6404 0.834133 11.5735 2.42417 12.3628C2.47293 12.3911 2.52726 12.4097 2.58377 12.417C2.64029 12.4243 2.69778 12.4207 2.75267 12.4058C2.80756 12.3909 2.85868 12.3652 2.90284 12.3306C2.947 12.2959 2.98326 12.2529 3.00937 12.2041C3.03547 12.1555 3.05085 12.1021 3.05457 12.0474C3.05828 11.9927 3.05024 11.938 3.03094 11.8862C3.01165 11.8347 2.98152 11.7876 2.94242 11.7476C2.90332 11.7078 2.8561 11.676 2.80368 11.6545C1.49344 11.0061 0.788624 10.2759 0.831093 9.60767C0.876274 8.67017 2.4323 7.70654 5.1323 7.19434C5.37627 8.05713 5.69254 8.95825 6.08109 9.87671C5.16121 11.5156 4.49435 13.1292 4.15007 14.5642C3.64405 16.7039 3.91513 18.2273 4.92718 18.8594C5.25248 19.0625 5.632 19.1631 6.05399 19.1631C6.89886 19.1631 7.92176 18.7639 9.07838 17.9722C9.09616 17.9612 9.113 17.949 9.12874 17.9355C9.15457 17.9133 9.17749 17.8882 9.19691 17.8606C9.22817 17.8159 9.24972 17.7659 9.26026 17.7131C9.27081 17.6604 9.27013 17.6062 9.25826 17.5537C9.24639 17.5012 9.22359 17.4517 9.19122 17.408C9.15885 17.3643 9.11759 17.3271 9.06992 17.2991C9.02225 17.271 8.96917 17.2527 8.91388 17.2449C8.85858 17.2371 8.80221 17.24 8.74818 17.2539C8.69414 17.2676 8.64355 17.2915 8.59947 17.3245C7.20428 18.282 6.02959 18.6023 5.38079 18.1953C4.69405 17.7656 4.54404 16.5085 4.96513 14.7439C5.25429 13.5408 5.78471 12.2004 6.5085 10.8203C6.68923 11.2004 6.87899 11.5806 7.07778 11.96C8.36543 14.387 9.94224 16.4973 11.5145 17.9019C12.7669 19.0217 13.9308 19.6057 14.8895 19.6057C15.2058 19.6057 15.504 19.5408 15.7715 19.4124C16.8061 18.9045 17.2534 17.4939 17.0347 15.4409C16.8323 13.5198 16.0769 11.1787 14.9076 8.84375C14.8583 8.75122 14.7733 8.68091 14.6708 8.64746C14.5683 8.61426 14.4563 8.62061 14.3587 8.66528C14.2611 8.71021 14.1854 8.78979 14.1479 8.88721C14.1103 8.98462 14.1138 9.09229 14.1576 9.1875C16.5883 14.0503 16.76 18.033 15.3956 18.7014C13.9588 19.407 10.4943 16.657 7.81422 11.6006C7.507 11.032 7.23862 10.4722 7.00097 9.92529C7.3082 9.39746 7.6335 8.86621 7.99043 8.33667C8.34736 7.8125 8.71874 7.30542 9.09645 6.82202H9.45248C9.94043 6.82202 10.4699 6.83057 11.0193 6.86353C16.9199 7.16138 20.9365 9.08594 20.8543 10.6257C20.8181 11.2898 20.0193 11.9609 18.663 12.4661C18.5611 12.5056 18.4794 12.5818 18.4354 12.6787C18.3915 12.7754 18.3889 12.8848 18.4281 12.9834C18.4474 13.0325 18.4766 13.0771 18.5141 13.1152C18.5516 13.1533 18.5966 13.1838 18.6464 13.2048C18.6963 13.2261 18.7501 13.2375 18.8046 13.2385C18.8294 13.239 18.8541 13.2373 18.8784 13.2336C18.9076 13.229 18.9363 13.2214 18.9639 13.2109C20.6853 12.5686 21.6296 11.6865 21.6838 10.6675C21.7471 9.51294 20.6266 8.40186 18.5212 7.54248V7.53369L18.5139 7.52856C16.5413 6.72119 13.891 6.20044 11.0591 6.05713C10.6073 6.03125 10.1672 6.02246 9.74886 6.02246C11.8434 3.56592 14.088 1.9165 15.5654 1.8645C15.8564 1.85327 16.1031 1.91235 16.3001 2.03467C16.938 2.43213 17.1178 3.56934 16.7925 5.15088C16.7564 5.36792 16.901 5.57886 17.1178 5.61963C17.3437 5.66309 17.5606 5.52417 17.6058 5.30713C18.0124 3.32812 17.7142 1.96875 16.7564 1.36792C16.413 1.15259 15.9974 1.05103 15.5365 1.06763C13.6841 1.13452 11.0727 3.06421 8.67808 6.03296C7.63531 6.06323 6.65398 6.14575 5.7576 6.28198C5.17387 3.76733 5.40519 1.96167 6.29435 1.52759C6.41904 1.46436 6.55188 1.43213 6.7073 1.42017C7.33712 1.37329 8.2073 1.76294 9.15609 2.52246C9.33139 2.66138 9.59525 2.64404 9.73983 2.47046C9.77454 2.43018 9.80068 2.38379 9.81674 2.33398C9.83281 2.28418 9.83848 2.23169 9.83345 2.17969C9.82841 2.12769 9.81277 2.07715 9.7874 2.03101C9.76204 1.98486 9.72745 1.94385 9.68561 1.9104C8.54706 1.00513 7.49706 0.5625 6.63863 0.623291C6.38647 0.642822 6.14037 0.70752 5.91302 0.814209C4.83772 1.34106 4.40398 2.83423 4.67507 5.01392C4.73832 5.46509 4.81965 5.93579 4.93712 6.42017C1.97236 6.9895 0.0838051 8.13013 0.00247955 9.56592C0.000823975 9.59692 0 9.62769 0 9.65869ZM6.60429 8.97729C6.82477 8.61548 7.05067 8.25781 7.29736 7.89673C7.53772 7.5354 7.78531 7.18481 8.03832 6.84619C7.29284 6.88965 6.59525 6.95923 5.95097 7.05469C6.13574 7.70532 6.35378 8.34717 6.60429 8.97729ZM9.96278 9.26709C10.1958 9.04321 10.5118 8.91748 10.8413 8.91748C11.1709 8.91748 11.4869 9.04321 11.7199 9.26709C11.9529 9.49097 12.0838 9.79443 12.0838 10.1111C12.0838 10.4275 11.9529 10.7312 11.7199 10.9551C11.4869 11.179 11.1709 11.3047 10.8413 11.3047C10.5118 11.3047 10.1958 11.179 9.96278 10.9551C9.72977 10.7312 9.59887 10.4275 9.59887 10.1111C9.59887 9.79443 9.72977 9.49097 9.96278 9.26709Z" fill="#1D1D1D"/>
</svg>
