<svg width="21" height="21" viewBox="0 0 21 21" fill="none" xmlns="http://www.w3.org/2000/svg">
<path fill-rule="evenodd" clip-rule="evenodd" d="M21 0H0V21H21V0ZM7.90831 1.12482C7.90831 0.928507 7.74917 0.769367 7.55286 0.769367C7.35655 0.769367 7.19741 0.928507 7.19741 1.12482V2.85269H5.43005C4.77491 2.85269 4.14529 3.10804 3.68003 3.56464C3.21455 4.02146 2.9518 4.64248 2.9518 5.29146V7.01933H1.18445C0.988138 7.01933 0.828998 7.17848 0.828998 7.37479C0.828998 7.57109 0.988138 7.73024 1.18445 7.73024H2.9518V13.2693H1.18445C0.988138 13.2693 0.828998 13.4284 0.828998 13.6248C0.828998 13.8211 0.988138 13.9802 1.18445 13.9802H2.9518V15.7081C2.9518 16.3571 3.21455 16.9781 3.68003 17.4349C4.14529 17.8915 4.77491 18.1468 5.43005 18.1468H7.19741V19.8747C7.19741 20.071 7.35655 20.2302 7.55286 20.2302C7.74917 20.2302 7.90831 20.071 7.90831 19.8747V18.1468H13.5658V19.8747C13.5658 20.071 13.725 20.2302 13.9213 20.2302C14.1176 20.2302 14.2767 20.071 14.2767 19.8747V18.1468H16.0441C16.6992 18.1468 17.3288 17.8915 17.7941 17.4349C18.2596 16.9781 18.5223 16.3571 18.5223 15.7081V13.9802H20.2897C20.486 13.9802 20.6451 13.8211 20.6451 13.6248C20.6451 13.4284 20.486 13.2693 20.2897 13.2693H18.5223V7.73024H20.2897C20.486 7.73024 20.6451 7.57109 20.6451 7.37479C20.6451 7.17848 20.486 7.01933 20.2897 7.01933H18.5223V5.29146C18.5223 4.64248 18.2596 4.02146 17.7941 3.56464C17.3288 3.10804 16.6992 2.85269 16.0441 2.85269H14.2767V1.12482C14.2767 0.928507 14.1176 0.769367 13.9213 0.769367C13.725 0.769367 13.5658 0.928507 13.5658 1.12482V2.85269H7.90831V1.12482ZM5.43005 3.56359H7.55286H13.9213H16.0441C16.5149 3.56359 16.9652 3.74722 17.2961 4.07202C17.6269 4.3966 17.8114 4.83538 17.8114 5.29146V7.37479V13.6248V15.7081C17.8114 16.1642 17.6269 16.6029 17.2961 16.9275C16.9652 17.2523 16.5149 17.4359 16.0441 17.4359H13.9213H7.55286H5.43005C4.95919 17.4359 4.50893 17.2523 4.17798 16.9275C3.84725 16.6029 3.6627 16.1642 3.6627 15.7081V13.6248V7.37479V5.29146C3.6627 4.83538 3.84725 4.3966 4.17798 4.07202C4.50893 3.74722 4.95919 3.56359 5.43005 3.56359ZM7.55286 7.01933C7.35655 7.01933 7.19741 7.17848 7.19741 7.37479V13.6248C7.19741 13.8211 7.35655 13.9802 7.55286 13.9802H13.9213C14.1176 13.9802 14.2767 13.8211 14.2767 13.6248V7.37479C14.2767 7.17848 14.1176 7.01933 13.9213 7.01933H7.55286ZM7.90831 13.2693V7.73024H13.5658V13.2693H7.90831Z" fill="#1D1D1D"/>
</svg>
