<svg width="20" height="20" viewBox="0 0 20 20" fill="none" xmlns="http://www.w3.org/2000/svg">
<path fill-rule="evenodd" clip-rule="evenodd" d="M1 19H7V13H1V19ZM19 13V19H13V13H19ZM1 7H7V1H1V7ZM13.8787 6.12109C14.4414 6.68408 15.2043 7 16 7C17.6569 7 19 5.65674 19 4C19 2.34326 17.6569 1 16 1C14.3431 1 13 2.34326 13 4C13 4.79541 13.316 5.55859 13.8787 6.12109ZM1 12H0V8H1H7H8V7V1V0H16C13.7908 0 12 1.79102 12 4C12 5.06104 12.4214 6.07812 13.1716 6.82861C13.9218 7.57861 14.9391 8 16 8C18.2092 8 20 6.20898 20 4V12H19H13H12V13V19V20H8V19V13V12H7H1ZM20 4V0H16C18.2092 0 20 1.79102 20 4Z" fill="#232526"/>
</svg>
