<svg width="21" height="21" viewBox="0 0 21 21" fill="none" xmlns="http://www.w3.org/2000/svg">
<path fill-rule="evenodd" clip-rule="evenodd" d="M21 0H0V21H21V0ZM10.7806 0.677246C10.681 0.62854 10.5646 0.62854 10.465 0.677246L1.84216 4.89343C1.71887 4.95374 1.64075 5.07898 1.64075 5.21619V15.7568C1.64075 15.894 1.71887 16.0192 1.84216 16.0795L10.465 20.2957C10.5646 20.3444 10.681 20.3444 10.7806 20.2957L19.4034 16.0795C19.5267 16.0192 19.6049 15.894 19.6049 15.7568V5.21619C19.6049 5.07898 19.5267 4.95374 19.4034 4.89343L10.7806 0.677246ZM2.35925 15.5325V5.79181L10.2635 9.65668V19.3973L2.35925 15.5325ZM10.9821 18.646V9.65668L18.3358 6.06097L10.9821 18.646ZM11.5326 19.1282L18.8864 6.54321V15.5325L11.5326 19.1282ZM10.6228 1.3999L17.6929 4.85693H3.55273L10.6228 1.3999ZM10.6228 9.03253L17.6929 5.5755H3.55273L10.6228 9.03253Z" fill="#1D1D1D"/>
</svg>
