<svg width="19" height="19" viewBox="0 0 19 19" fill="none" xmlns="http://www.w3.org/2000/svg">
<path fill-rule="evenodd" clip-rule="evenodd" d="M19 0H0V19H19V0ZM0.394008 14.8448C0.383904 14.8621 0.374898 14.8798 0.366972 14.8977C0.171812 15.1634 0.0679932 15.4483 0.0679932 15.75C0.0679932 17.6466 4.16869 18.875 9.27254 18.875C14.3764 18.875 18.4771 17.6466 18.4771 15.75C18.4771 15.5549 18.4337 15.3668 18.3502 15.1864C18.344 15.1094 18.3209 15.0326 18.2793 14.9618L9.71134 0.378455C9.51249 0.0399878 9.03076 0.0407457 8.83293 0.379837L0.394008 14.8448ZM9.27254 12.625C6.46956 12.625 3.96914 12.9956 2.28436 13.6438L9.27408 1.66283L16.3286 13.6702C14.6435 13.0056 12.1134 12.625 9.27254 12.625ZM1.09072 15.75C1.09072 15.6709 1.11473 15.591 1.16124 15.5109C1.20463 15.4741 1.24272 15.4292 1.27323 15.3769L1.29568 15.3384C2.12828 14.4853 5.39814 13.6667 9.27254 13.6667C13.7709 13.6667 17.4544 14.7701 17.4544 15.75C17.4544 16.73 13.7709 17.8334 9.27254 17.8334C4.77416 17.8334 1.09072 16.73 1.09072 15.75Z" fill="#1D1D1D"/>
</svg>
