<svg width="85" height="25" viewBox="0 0 85 25" fill="none" xmlns="http://www.w3.org/2000/svg">
<path d="M16.4103 7.73814H18.8719L22.9745 23.2143H20.5129L16.4103 7.73814Z" fill="white"/>
<path d="M11.487 7.73814H14.1537L18.5981 23.2143H15.9314L11.487 7.73814Z" fill="white"/>
<path d="M6.3297 1.82292L0 25L4.9231 23.4375L11.4872 0L6.3297 1.82292Z" fill="white"/>
<path d="M35.4523 15.4944L33.0601 8.98238L30.6678 15.4944H35.4523ZM38.0093 19.6834H37.0038L35.8337 16.5131H30.2864L29.1163 19.6834H28.1108L33.0601 6.25L38.0093 19.6834Z" fill="white"/>
<path d="M44.1598 7.53527V14.5995H47.3755C48.2654 14.5995 49.0253 14.2567 49.6551 13.5713C50.2792 12.8731 50.5912 12.0385 50.5912 11.0674C50.5912 10.0963 50.2792 9.26482 49.6551 8.573C49.0253 7.88118 48.2654 7.53527 47.3755 7.53527H44.1598ZM49.0397 15.2754C49.9007 15.8974 50.5248 16.5956 50.9119 17.3699C51.3048 18.157 51.5013 18.9281 51.5013 19.6834H50.5652C50.5652 18.6616 50.1867 17.7285 49.4297 16.8844C48.6612 16.0466 47.7396 15.6277 46.6648 15.6277H44.1598V19.6834H43.2237V6.50705H47.3755C48.5254 6.50705 49.5049 6.95452 50.3139 7.84944C51.1286 8.73802 51.536 9.81067 51.536 11.0674C51.536 11.9179 51.3337 12.7081 50.9293 13.438C50.5363 14.1361 49.9065 14.7486 49.0397 15.2754Z" fill="white"/>
<path d="M57.2965 19.6834V6.50705H58.2326V19.6834H57.2965Z" fill="white"/>
<path d="M71.2566 18.6552V19.6834H64.2791V6.50705H71.2566V7.53527H65.2152V12.543H70.0865V13.5713H65.2152V18.6552H71.2566Z" fill="white"/>
<path d="M80.9782 19.9405C79.9959 19.9405 79.106 19.6834 78.3086 19.1693C77.3494 18.56 76.7368 17.7603 76.471 16.7701L77.3551 16.4845C77.5574 17.2462 78.0428 17.865 78.8113 18.341C79.4412 18.7345 80.1664 18.9313 80.9869 18.9313C81.114 18.9313 81.2238 18.9281 81.3162 18.9218C81.4087 18.9154 81.5185 18.8996 81.6456 18.8742C82.0039 18.8107 82.3304 18.706 82.6251 18.56C83.5149 18.1157 83.9974 17.3541 84.0726 16.2751C84.113 15.6975 83.957 15.1834 83.6045 14.7328C83.0787 14.06 82.2495 13.6823 81.1169 13.5998C79.3603 13.4729 78.0977 13.0286 77.3291 12.267C76.7629 11.7148 76.4797 11.0007 76.4797 10.1248C76.4797 8.92526 76.9102 7.96686 77.7712 7.24965C78.5628 6.58322 79.522 6.25 80.6488 6.25C81.9779 6.25 83.0902 6.76728 83.9859 7.80184C84.269 8.13823 84.5146 8.50636 84.7226 8.90622C84.792 9.03316 84.844 9.14423 84.8787 9.23944L84.0206 9.59169C83.9974 9.54727 83.931 9.42033 83.8212 9.21087C83.7114 8.99508 83.5409 8.76024 83.3098 8.50636C82.5933 7.6749 81.7063 7.25917 80.6488 7.25917C80.331 7.25917 80.0074 7.3036 79.6781 7.39246C79.2909 7.48132 78.9413 7.62413 78.6293 7.82088C77.8087 8.34768 77.3985 9.11567 77.3985 10.1248C77.3985 11.5847 78.6582 12.4066 81.1776 12.5907C82.5644 12.6922 83.6045 13.1841 84.2979 14.0663C84.818 14.7264 85.0491 15.4881 84.9913 16.3512C84.9047 17.5127 84.451 18.4204 83.6305 19.0741C82.9024 19.6517 82.0241 19.9405 80.9956 19.9405H80.9782Z" fill="white"/>
</svg>
