<svg width="21" height="20" viewBox="0 0 21 20" fill="none" xmlns="http://www.w3.org/2000/svg">
<path fill-rule="evenodd" clip-rule="evenodd" d="M21 0H0V20H21V0ZM10.9164 0.647747C10.8201 0.59938 10.7066 0.59938 10.6103 0.647747L8.63538 1.63981C8.49421 1.71073 8.42025 1.86935 8.45669 2.02308C8.49314 2.1768 8.63042 2.28535 8.78841 2.28535H12.7383C12.8962 2.28535 13.0335 2.1768 13.07 2.02308C13.1064 1.86935 13.0325 1.71073 12.8913 1.63981L10.9164 0.647747ZM11.3001 1.60353H10.2265L10.7633 1.33388L11.3001 1.60353ZM4.99159 4.2332C5.15983 4.14869 5.22771 3.94378 5.1432 3.77554C5.05868 3.60729 4.85378 3.53942 4.68553 3.62393L2.71719 4.61269C2.70211 4.61987 2.68765 4.62813 2.67389 4.63736C2.65516 4.64987 2.638 4.66402 2.62251 4.6795C2.64939 4.65262 2.68031 4.63075 2.71376 4.61441L2.559 4.7676C2.5561 4.77338 2.55338 4.7792 2.55083 4.78506C2.55733 4.77005 2.56491 4.75549 2.57353 4.7415C2.57574 4.73791 2.57803 4.73437 2.58037 4.73088C2.59288 4.71215 2.60703 4.69499 2.62251 4.6795C2.60366 4.69835 2.58727 4.71919 2.57353 4.7415C2.55459 4.77211 2.54036 4.80594 2.53184 4.84198C2.52564 4.86805 2.52263 4.89444 2.52265 4.92063L2.52273 4.92799V7.40078C2.52273 7.58906 2.67536 7.74169 2.86364 7.74169C3.05192 7.74169 3.20455 7.58906 3.20455 7.40078V5.47338L4.68553 6.21732C4.85378 6.30184 5.05868 6.23396 5.1432 6.06572C5.22771 5.89747 5.15983 5.69257 4.99159 5.60806L3.62311 4.92063L4.99159 4.2332ZM16.8411 3.62393C16.6729 3.53942 16.468 3.60729 16.3835 3.77554C16.299 3.94378 16.3668 4.14869 16.5351 4.2332L17.9036 4.92063L16.5351 5.60806C16.3668 5.69257 16.299 5.89747 16.3835 6.06572C16.468 6.23396 16.6729 6.30184 16.8411 6.21732L18.3221 5.47338V7.40078C18.3221 7.58906 18.4748 7.74169 18.663 7.74169C18.8513 7.74169 19.0039 7.58906 19.0039 7.40078V4.92797L19.004 4.92063C19.004 4.89444 19.001 4.86805 18.9948 4.84198C18.9863 4.80599 18.9721 4.77222 18.9532 4.74165C18.9464 4.73061 18.939 4.71995 18.9309 4.70969C18.9168 4.69175 18.9011 4.6755 18.8842 4.66105C18.8709 4.64972 18.8568 4.6395 18.842 4.63043C18.8315 4.62395 18.8207 4.61802 18.8095 4.61269L16.8411 3.62393ZM8.94144 7.59218C8.77319 7.50766 8.56829 7.57554 8.48378 7.74379C8.39926 7.91203 8.46714 8.11693 8.63538 8.20145L10.4224 9.09913V11.369C10.4224 11.5573 10.5751 11.7099 10.7633 11.7099C10.9516 11.7099 11.1042 11.5573 11.1042 11.369V9.09913L12.8913 8.20145C13.0595 8.11693 13.1274 7.91203 13.0429 7.74379C12.9584 7.57554 12.7535 7.50766 12.5852 7.59218L10.7633 8.50737L8.94144 7.59218ZM3.15997 12.1925C3.08348 12.0581 2.92603 11.992 2.77647 12.0315C2.6269 12.0711 2.52273 12.2064 2.52273 12.3611V14.8412C2.52273 14.9701 2.59543 15.088 2.71061 15.1459L4.68553 16.1379C4.81977 16.2054 4.98232 16.177 5.08576 16.0681C5.18921 15.9591 5.20916 15.7953 5.13489 15.6648L3.15997 12.1925ZM19.0039 12.3611C19.0039 12.1728 18.8513 12.0202 18.663 12.0202C18.4748 12.0202 18.3221 12.1728 18.3221 12.3611V14.631L16.5351 15.5287C16.3668 15.6132 16.299 15.8181 16.3835 15.9863C16.468 16.1546 16.6729 16.2225 16.8411 16.1379L18.8161 15.1459C18.9312 15.088 19.0039 14.9701 19.0039 14.8412V12.3611ZM3.20455 14.631V13.65L3.9857 15.0234L3.20455 14.631ZM11.1042 16.3293C11.1042 16.1411 10.9516 15.9884 10.7633 15.9884C10.5751 15.9884 10.4224 16.1411 10.4224 16.3293V18.2567L8.94144 17.5128C8.77319 17.4283 8.56829 17.4962 8.48378 17.6644C8.39926 17.8326 8.46714 18.0375 8.63538 18.1221L10.6042 19.111C10.6293 19.1243 10.6563 19.1346 10.6847 19.1413C10.7108 19.1475 10.7372 19.1505 10.7633 19.1505C10.7895 19.1505 10.8159 19.1475 10.842 19.1413C10.8612 19.1367 10.8802 19.1304 10.8989 19.1223C10.906 19.1192 10.9157 19.1146 10.9225 19.111L12.8913 18.1221C13.0595 18.0375 13.1274 17.8326 13.0429 17.6644C12.9584 17.4962 12.7535 17.4283 12.5852 17.5128L11.1042 18.2567V16.3293Z" fill="#1D1D1D"/>
</svg>
