<svg width="22" height="19" viewBox="0 0 22 19" fill="none" xmlns="http://www.w3.org/2000/svg">
<path fill-rule="evenodd" clip-rule="evenodd" d="M22 0L-9.53674e-07 -7.97627e-09L-1.78419e-06 19L22 19L22 0ZM10.8581 6.37501C8.66867 6.37501 6.89379 7.77412 6.89379 9.50001C6.89379 11.2259 8.66867 12.625 10.8581 12.625C13.0475 12.625 14.8224 11.2259 14.8224 9.50001C14.8224 7.77412 13.0475 6.37501 10.8581 6.37501ZM10.8581 11.5833C9.39847 11.5833 8.21522 10.6506 8.21522 9.50001C8.21522 8.34941 9.39847 7.41667 10.8581 7.41667C12.3177 7.41667 13.5009 8.34941 13.5009 9.50001C13.5009 10.6506 12.3177 11.5833 10.8581 11.5833ZM4.46835 6.24038C4.73893 6.43337 5.15675 6.41692 5.40158 6.20362C5.56591 6.06045 5.73922 5.92384 5.92084 5.79429C8.93438 3.64482 13.5878 3.82808 16.3146 6.20363C16.5594 6.41692 16.9772 6.43337 17.2478 6.24038C17.5184 6.04738 17.5393 5.71802 17.2944 5.50473C14.078 2.7026 8.58894 2.48642 5.03424 5.02189C4.82 5.1747 4.61558 5.33584 4.42173 5.50472C4.1769 5.71802 4.19777 6.04738 4.46835 6.24038ZM19.8751 4.16783C20.1532 3.98163 20.1872 3.65295 19.951 3.4337C15.6861 -0.524983 8.15772 -1.00873 3.13585 2.35322C2.64254 2.68347 2.18414 3.04482 1.76519 3.43369C1.52898 3.65295 1.56297 3.98163 1.8411 4.16783C2.11924 4.35403 2.53619 4.32724 2.7724 4.10799C3.14495 3.76219 3.55257 3.44086 3.99124 3.14719C8.45684 0.157647 15.1513 0.58781 18.9438 4.10799C19.18 4.32724 19.5969 4.35403 19.8751 4.16783ZM17.246 12.7584C16.9745 12.5661 16.5568 12.5838 16.313 12.7978C13.607 15.1726 8.97118 15.3686 5.95853 13.2356C5.76363 13.0976 5.57826 12.9514 5.4032 12.7978C5.15936 12.5838 4.74162 12.5661 4.47015 12.7584C4.19868 12.9506 4.17627 13.2799 4.42011 13.4939C4.62671 13.6752 4.8455 13.8477 5.07552 14.0105C8.63112 16.528 14.1024 16.2967 17.2961 13.4939C17.5399 13.2799 17.5175 12.9506 17.246 12.7584ZM19.8753 14.8324C19.5973 14.646 19.1803 14.6727 18.944 14.8918C15.1473 18.4121 8.44934 18.8396 3.98362 15.8468C3.54782 15.5547 3.14268 15.2354 2.77217 14.8918C2.53582 14.6727 2.11884 14.646 1.84083 14.8324C1.56282 15.0187 1.52906 15.3474 1.76542 15.5665C2.18206 15.9528 2.63763 16.312 3.1277 16.6404C8.14944 20.0059 15.6814 19.5251 19.9507 15.5665C20.1871 15.3474 20.1533 15.0187 19.8753 14.8324Z" fill="#1D1D1D"/>
</svg>
