<svg width="25" height="21" viewBox="0 0 25 21" fill="none" xmlns="http://www.w3.org/2000/svg">
<path fill-rule="evenodd" clip-rule="evenodd" d="M25 0H0V9.76172C7.62939e-05 9.71533 0.00537109 9.66895 0.0158844 9.62329C0.0394287 9.521 0.0885315 9.42505 0.159378 9.34302C0.230209 9.26099 0.320847 9.19507 0.42421 9.15039C0.527557 9.10571 0.640808 9.0835 0.755112 9.08545C0.916611 9.08813 1.07266 9.13916 1.19952 9.23071C1.32637 9.32202 1.41707 9.44897 1.45779 9.5918C2.23335 12.3093 3.97293 14.7148 6.40396 16.4314C8.83499 18.1482 11.8201 19.0789 14.8917 19.0779C15.0883 19.0779 15.2769 19.1494 15.4159 19.2764C15.5549 19.4036 15.633 19.5759 15.633 19.7556C15.633 19.8835 15.5935 20.0076 15.5208 20.1143C15.4912 20.1577 15.4561 20.1982 15.4159 20.2349C15.2769 20.3621 15.0883 20.4333 14.8917 20.4333C7.89688 20.4333 1.78165 16.115 0.0236664 9.93262C0.00799561 9.8772 0.000106812 9.82056 0 9.76392V21H25V0ZM11.8092 0.769287C11.9453 0.642578 12.1304 0.56958 12.3246 0.566406C12.4231 0.564941 12.5209 0.581299 12.6124 0.614502C12.6696 0.635498 12.7236 0.662598 12.7732 0.695557C12.803 0.715332 12.8311 0.737061 12.8575 0.760742C12.9277 0.82373 12.9835 0.898926 13.0216 0.982178C13.0401 1.02246 13.0542 1.06421 13.0638 1.10669C13.0741 1.15186 13.0793 1.198 13.0793 1.24438V14.1274C13.0793 14.3074 13.0012 14.4797 12.8622 14.6067C12.7233 14.7339 12.5348 14.8052 12.3382 14.8054C12.1416 14.8054 11.9531 14.7339 11.814 14.6067C11.675 14.4797 11.5969 14.3074 11.5969 14.1274V1.24414C11.5969 1.06665 11.6731 0.895996 11.8092 0.769287ZM23.259 4.48438C23.3473 4.44849 23.4424 4.42871 23.5389 4.42603C23.6856 4.42236 23.8303 4.45825 23.9546 4.52954C24.079 4.60083 24.1775 4.70435 24.2376 4.82666C24.3171 4.99072 24.3224 5.177 24.2522 5.34473C24.1821 5.51245 24.0422 5.64795 23.8632 5.72144L19.0166 7.69995L23.8632 9.6853C24.0184 9.74829 24.1453 9.8584 24.2226 9.99658C24.2998 10.135 24.3227 10.2935 24.2874 10.4456C24.2522 10.5974 24.1609 10.7336 24.0288 10.8315C23.8968 10.9292 23.732 10.9827 23.5621 10.9824C23.4576 10.9822 23.3543 10.9617 23.259 10.9226L16.8972 8.31763C16.767 8.26392 16.6565 8.17676 16.579 8.06714C16.5015 7.95752 16.4602 7.82959 16.4602 7.69897C16.4602 7.56836 16.5015 7.44043 16.579 7.33081C16.6565 7.22095 16.767 7.13403 16.8972 7.08032L23.259 4.48438Z" fill="#1D1D1D"/>
</svg>
