<svg width="23" height="21" viewBox="0 0 23 21" fill="none" xmlns="http://www.w3.org/2000/svg">
<path fill-rule="evenodd" clip-rule="evenodd" d="M23 0H0V21H23V0ZM5.03991 7.51381C6.80061 7.29811 8.19329 6.1053 8.44514 4.59729H13.6548C15.8751 4.59729 17.675 6.13891 17.675 8.04058V8.56735C15.7268 8.80603 14.2291 10.2411 14.2291 11.9758C14.2291 13.8774 16.029 15.4191 18.2494 15.4191C20.4697 15.4191 22.2696 13.8774 22.2696 11.9758C22.2696 10.2411 20.772 8.80603 18.8237 8.56735V8.04058C18.8237 5.59557 16.5095 3.6135 13.6548 3.6135H8.44514C8.16646 1.94484 6.49092 0.662109 4.46558 0.662109C2.24525 0.662109 0.445312 2.20372 0.445312 4.1054C0.445312 5.84006 1.94298 7.27513 3.89126 7.51381V13.4863C1.94298 13.725 0.445312 15.1601 0.445312 16.8947C0.445312 18.7964 2.24525 20.338 4.46558 20.338C6.68592 20.338 8.48585 18.7964 8.48585 16.8947C8.48585 15.1601 6.98818 13.725 5.03991 13.4863V7.51381ZM4.46558 6.56489C2.87963 6.56489 1.59396 5.46374 1.59396 4.1054C1.59396 2.74706 2.87963 1.64591 4.46558 1.64591C6.05154 1.64591 7.3372 2.74706 7.3372 4.1054C7.3372 5.46374 6.05154 6.56489 4.46558 6.56489ZM4.46558 19.3542C2.87963 19.3542 1.59396 18.2531 1.59396 16.8947C1.59396 15.5364 2.87963 14.4353 4.46558 14.4353C6.05154 14.4353 7.3372 15.5364 7.3372 16.8947C7.3372 18.2531 6.05154 19.3542 4.46558 19.3542ZM15.3777 11.9758C15.3777 10.6174 16.6634 9.51628 18.2494 9.51628C19.8353 9.51628 21.121 10.6174 21.121 11.9758C21.121 13.3341 19.8353 14.4353 18.2494 14.4353C16.6634 14.4353 15.3777 13.3341 15.3777 11.9758Z" fill="#1D1D1D"/>
</svg>
